<?xml version="1.0" encoding="utf-8"?>
<!-- Generator: Adobe Illustrator 21.0.0, SVG Export Plug-In . SVG Version: 6.00 Build 0)  -->
<svg version="1.1" id="Ebene_1" xmlns="http://www.w3.org/2000/svg" xmlns:xlink="http://www.w3.org/1999/xlink" x="0px" y="0px"
	 viewBox="0 0 120 31.4" style="enable-background:new 0 0 120 31.4;" xml:space="preserve">
<style type="text/css">
	.st0{fill:#77BC1F;}
	.st1{fill:#003DA6;}
</style>
<g>
	<path class="st0" d="M39.7,24.6c0,0.7-0.4,0.8-0.9,0.8c-0.1,0,0,0-0.8,0v1.3h-0.7v-3.5h1.5c0.4,0,0.9,0.2,0.9,0.8V24.6z M38.7,24.9
		c0.2,0,0.3,0,0.3-0.3v-0.4c0-0.2-0.1-0.3-0.3-0.3H38v1H38.7z"/>
	<path class="st0" d="M43.2,26.8c-0.4,0-0.9-0.2-0.9-0.8v-2c0-0.6,0.4-0.8,0.9-0.8h0.6c0.4,0,0.9,0.2,0.9,0.8v2
		c0,0.6-0.4,0.8-0.9,0.8H43.2z M43,24.2v1.6c0,0.3,0.1,0.4,0.4,0.4h0.3c0.2,0,0.4,0,0.4-0.4v-1.6c0-0.3-0.2-0.4-0.4-0.4
		c0,0-0.2,0-0.2,0C43.2,23.8,43,23.9,43,24.2z"/>
	<path class="st0" d="M50.4,23.3h0.7l-0.8,3.5h-0.8l-0.4-1.4l-0.3,1.4h-0.9l-0.8-3.5h0.7l0.5,2.6l0.6-2.6h0.7l-0.2,0.9l0.5,1.7
		L50.4,23.3z"/>
	<path class="st0" d="M54.3,24.7h1.2v0.6h-1.2v0.9h1.6v0.6h-2.2v-3.5h2.2v0.6h-1.6V24.7z"/>
	<path class="st0" d="M61,24.5c0,0.5-0.2,0.8-0.6,0.9l0.7,1.4h-0.8l-0.7-1.4h-0.4v1.4h-0.7v-3.5h1.5c0.4,0,0.9,0.2,0.9,0.8V24.5z
		 M60,24.8c0.2,0,0.3,0,0.3-0.3v-0.3c0-0.2-0.1-0.3-0.3-0.3h-0.7v0.9H60z"/>
	<path class="st0" d="M64.5,24.4h-0.6v-0.6h0.3v-0.7h0.3l0.1,0.7V24.4z"/>
	<path class="st0" d="M69.7,25.8c0,0.7-0.4,0.9-1,0.9h-1.3v-3.5h1.3c0.6,0,1,0.2,1,0.9V25.8z M69,24.3c0-0.2-0.1-0.4-0.4-0.4H68v2.3
		h0.6c0.4,0,0.4-0.2,0.4-0.4V24.3z"/>
	<path class="st0" d="M78.3,25.9c0,0.7-0.4,0.8-0.9,0.8H76v-3.5h1.4c0.4,0,0.9,0.2,0.9,0.8v0.1c0,0.3-0.1,0.6-0.4,0.7
		c0.3,0.1,0.4,0.4,0.4,0.7V25.9z M77.4,24.7c0.2,0,0.3-0.2,0.3-0.3v-0.2c0-0.1,0-0.3-0.3-0.3h-0.7v0.8H77.4z M77.4,26.2
		c0.2,0,0.3-0.1,0.3-0.2v-0.3c0-0.2-0.1-0.3-0.3-0.3c-0.1,0,0.1,0-0.7,0v0.9H77.4z"/>
	<path class="st0" d="M81.3,23.3l0.6,1.4l0.6-1.4h0.8l-1,2.3v1.2h-0.7v-1.2l-1-2.3H81.3z"/>
	<path class="st0" d="M90.8,23.3l0.9,3.5H91l-0.2-1.1H90l-0.2,1.1H89l0.9-3.5H90.8z M90.1,25.1h0.6l-0.3-1.3L90.1,25.1z"/>
	<path class="st0" d="M96.6,23.3v3.5h-0.8l-0.9-1.9v1.9h-0.7v-3.5h0.7l1.1,2.2v-2.2H96.6z"/>
	<path class="st0" d="M100.1,24.7h1.2v0.6h-1.2v0.9h1.6v0.6h-2.2v-3.5h2.2v0.6h-1.6V24.7z"/>
	<path class="st0" d="M107,26.8h-0.8l-0.6-1.2l-0.6,1.2h-0.8l0.9-1.7l-0.9-1.7h0.8l0.6,1.2l0.6-1.2h0.8l-0.9,1.7L107,26.8z"/>
	<path class="st0" d="M110.3,23.3v3.5h-0.7v-3.5H110.3z"/>
	<path class="st0" d="M114.7,23.3l0.9,3.5h-0.8l-0.2-1.1h-0.8l-0.2,1.1h-0.8l0.9-3.5H114.7z M113.9,25.1h0.6l-0.3-1.3L113.9,25.1z"
		/>
</g>
<g>
	<path class="st1" d="M23.3,10.9c0-3.9,3.1-4.8,5.9-4.8c1.2,0,2.5,0.2,3.6,0.7l4-0.7L37,6.3v2.3h-2.4c0.3,0.6,0.5,1.4,0.5,2.3v1.5
		c0,3.9-3.1,4.8-5.9,4.8c-0.3,0-0.7,0-1,0c-0.3,1.6,0.3,2.2,1.1,2.2c3.9,0,5.7,0.2,5.7,3.7c0,3.7-3.3,4-6.2,4
		c-2.6,0-5.3-0.3-5.3-0.3v-2.7l0.2-0.2c0,0,2.5,0.3,4.4,0.3c2.3,0,3.1-0.3,3.1-1.1c0-0.7-0.5-0.9-1.8-0.9H28c-3.1,0-3.1-2.4-2.2-5.6
		c-1.4-0.7-2.4-1.9-2.4-4.2V10.9z M31.4,11.5c0-1.3-0.3-2.3-2.2-2.3c-1.8,0-2.2,1-2.2,2.3v0.6c0,1.3,0.3,2,2.2,2
		c1.8,0,2.2-1,2.2-2.3V11.5z"/>
	<path class="st1" d="M48.4,20.9h-3.5l-0.2-0.2l0.1-1.6h-0.1c0,0-1.3,2.2-4,2.2c-2,0-4-0.9-4-4.4c0-3.5,2.6-4.9,5.6-4.9h2.5v-0.8
		c0-1-0.5-2-2.2-2c-2,0-4.5,0.3-4.5,0.3l-0.2-0.2V6.4c0,0,2.8-0.3,5.4-0.3c2.4,0,5.3,0.6,5.3,4.1V20.9z M44.7,14.7H43
		c-2,0-2.6,0.6-2.6,1.8c0,1.3,1.1,1.6,1.9,1.6c1,0,2-0.4,2.5-1.2V14.7z"/>
	<path class="st1" d="M65.4,6.1c2.3,0,4,0.9,4,4.4v10.5h-3.7V10.8c0-1.3-0.6-1.6-1.5-1.6c-1.1,0-1.9,0.6-2.8,1.7v10.1h-3.7V10.8
		c0-1.3-0.6-1.6-1.5-1.6c-1.1,0-1.9,0.6-2.8,1.7v10.1h-3.7V6.4h3.5l0.2,0.2l-0.1,1.6h0.1c0,0,1.3-2.2,4-2.2c1.8,0,3.2,0.6,3.7,2.3
		C61.7,7.6,63.2,6.1,65.4,6.1z"/>
	<path class="st1" d="M82.1,14.4l-0.3,0.3h-7.5v0.8c0,2.2,1.3,2.5,3,2.5c2,0,3.9-0.3,3.9-0.3l0.2,0.2v3c0,0-2.5,0.3-5,0.3
		c-2.7,0-5.8-0.9-5.8-4.4v-6c0-3.9,3.1-4.8,5.9-4.8c2.8,0,5.9,0.9,5.9,4.8C82.4,12.3,82.1,14.4,82.1,14.4z M74.4,11.8v0.2h4
		c0.3-1.9,0-2.8-1.9-2.8C74.4,9.2,74.4,10.5,74.4,11.8z"/>
	<path class="st0" d="M86.9,6h2.9v12.1c0,2.2-1.2,3.1-3.5,3.1c-1.4,0-2.6-0.2-2.6-0.2v-2.4l0.2-0.2c0,0,1,0.1,1.8,0.1
		c0.8,0,1.2-0.2,1.2-1V6z"/>
	<path class="st0" d="M98.3,5.9l3.8,15.1h-3.2l-1-4.6h-3.3L93.7,21h-3.2l3.8-15.1H98.3z M95,13.8h2.4l-1.1-5.4L95,13.8z"/>
	<path class="st0" d="M106.3,6l3,6.7l3-6.7h3.3v15h-2.9v-8.9l-2.7,5.6h-1.6l-2.7-5.6V21H103V6H106.3z"/>
</g>
<rect x="3.6" y="6.1" transform="matrix(-1 -4.488155e-11 4.488155e-11 -1 23.2251 13.0669)" class="st0" width="16" height="0.8"/>
<rect x="2.8" y="6.9" transform="matrix(-1 -4.464175e-11 4.464175e-11 -1 7.2242 14.6515)" class="st0" width="1.6" height="0.8"/>
<rect x="18.8" y="6.9" transform="matrix(-1 -4.464175e-11 4.464175e-11 -1 39.2137 14.6515)" class="st0" width="1.6" height="0.8"/>
<rect x="14.8" y="8.5" transform="matrix(-1 -4.494994e-11 4.494994e-11 -1 32.8483 17.8876)" class="st0" width="3.2" height="0.8"/>
<rect x="9.2" y="14.1" transform="matrix(-1 -4.493218e-11 4.493218e-11 -1 28.8298 29.0639)" class="st0" width="10.4" height="0.8"/>
<rect x="15.6" y="12.5" transform="matrix(-1 -4.468749e-11 4.468749e-11 -1 33.6435 25.8611)" class="st0" width="2.4" height="0.8"/>
<rect x="3.6" y="23" transform="matrix(-1 -4.479806e-11 4.479806e-11 -1 21.6509 46.7123)" class="st0" width="14.4" height="0.8"/>
<rect x="13.2" y="24.6" transform="matrix(-1 -4.474655e-11 4.474655e-11 -1 31.228 49.915)" class="st0" width="4.8" height="0.8"/>
<rect x="17.2" y="22.2" transform="matrix(-1 -4.578616e-11 4.578616e-11 -1 36.0655 45.1276)" class="st0" width="1.6" height="0.8"/>
<rect x="2.8" y="22.2" transform="matrix(-1 -4.464175e-11 4.464175e-11 -1 7.2364 45.1276)" class="st0" width="1.6" height="0.8"/>
<rect x="14.8" y="18.2" transform="matrix(-4.484964e-11 1 -1 -4.484964e-11 36.964 0.1317)" class="st0" width="7.2" height="0.8"/>
<rect x="16.8" y="10.5" transform="matrix(-4.495178e-11 1 -1 -4.495178e-11 30.9341 -9.0764)" class="st0" width="6.4" height="0.8"/>
<rect x="-4" y="14.5" transform="matrix(-4.489050e-11 1 -1 -4.489050e-11 18.1668 11.7227)" class="st0" width="14.4" height="0.8"/>
<rect x="15.6" y="12.5" transform="matrix(-1 -4.474655e-11 4.474655e-11 -1 33.6467 25.8611)" class="st0" width="2.4" height="0.8"/>
<rect x="16.8" y="10.5" transform="matrix(4.503426e-11 -1 1 4.503426e-11 7.4873 29.345)" class="st0" width="3.2" height="0.8"/>
<rect x="13.6" y="10.5" transform="matrix(4.475182e-11 -1 1 4.475182e-11 4.2691 26.1602)" class="st0" width="3.2" height="0.8"/>
<rect x="16.4" y="10.9" transform="matrix(-1 -4.496771e-11 4.496771e-11 -1 33.6673 22.7001)" class="st0" width="0.8" height="0.8"/>
<rect x="13.6" y="16.9" transform="matrix(4.481755e-11 -1 1 4.481755e-11 -2.1173 32.5466)" class="st0" width="3.2" height="0.8"/>
<rect x="14" y="14.9" transform="matrix(4.591445e-11 -1 1 4.591445e-11 -0.9159 29.7457)" class="st0" width="0.8" height="0.8"/>
<rect x="15.6" y="17.3" transform="matrix(4.476603e-11 -1 1 4.476603e-11 -1.7211 33.7351)" class="st0" width="0.8" height="0.8"/>
<rect x="15.6" y="15.7" transform="matrix(4.502360e-11 -1 1 4.502360e-11 0.6854 32.9454)" class="st0" width="2.4" height="0.8"/>
<rect x="8.4" y="13.3" transform="matrix(4.476603e-11 -1 1 4.476603e-11 -4.9044 22.5414)" class="st0" width="0.8" height="0.8"/>
<rect x="9.6" y="16.9" transform="matrix(4.481755e-11 -1 1 4.481755e-11 -6.1199 28.5439)" class="st0" width="3.2" height="0.8"/>
<rect x="10" y="14.9" transform="matrix(4.591445e-11 -1 1 4.591445e-11 -4.9185 25.7431)" class="st0" width="0.8" height="0.8"/>
<rect x="11.6" y="17.3" transform="matrix(4.591445e-11 -1 1 4.591445e-11 -5.7238 29.7325)" class="st0" width="0.8" height="0.8"/>
<rect x="11.6" y="15.7" transform="matrix(4.502360e-11 -1 1 4.502360e-11 -3.3173 28.9428)" class="st0" width="2.4" height="0.8"/>
<rect x="10" y="8.5" transform="matrix(-1 -4.494994e-11 4.494994e-11 -1 23.2291 17.871)" class="st0" width="3.2" height="0.8"/>
<rect x="10.8" y="12.5" transform="matrix(-1 -4.474655e-11 4.474655e-11 -1 24.0275 25.8444)" class="st0" width="2.4" height="0.8"/>
<rect x="12" y="10.5" transform="matrix(4.475182e-11 -1 1 4.475182e-11 2.686 24.527)" class="st0" width="3.2" height="0.8"/>
<rect x="8.8" y="10.5" transform="matrix(4.475182e-11 -1 1 4.475182e-11 -0.5322 21.3422)" class="st0" width="3.2" height="0.8"/>
<rect x="11.6" y="10.9" transform="matrix(-1 -4.496771e-11 4.496771e-11 -1 24.0481 22.6834)" class="st0" width="0.8" height="0.8"/>
<rect x="11.2" y="4.9" transform="matrix(4.531848e-11 -1 1 4.531848e-11 6.6699 17.3388)" class="st0" width="1.6" height="0.8"/>
<rect x="12.8" y="4.1" transform="matrix(4.531848e-11 -1 1 4.531848e-11 9.0644 18.1487)" class="st0" width="1.6" height="0.8"/>
<rect x="11.8" y="4.5" transform="matrix(-1 -4.475144e-11 4.475144e-11 -1 25.2114 9.8766)" class="st0" width="1.6" height="0.8"/>
<rect x="8.8" y="4.9" transform="matrix(4.531848e-11 -1 1 4.531848e-11 4.2649 14.9547)" class="st0" width="1.6" height="0.8"/>
<rect x="8" y="4.1" transform="matrix(4.475182e-11 -1 1 4.475182e-11 4.2858 13.3492)" class="st0" width="1.6" height="0.8"/>
<rect x="17.6" y="25.8" transform="matrix(4.464169e-11 -1 1 4.464169e-11 -7.7321 44.5644)" class="st0" width="1.6" height="0.8"/>
<rect x="12" y="25.8" transform="matrix(4.464169e-11 -1 1 4.464169e-11 -13.3491 38.9473)" class="st0" width="1.6" height="0.8"/>
<rect x="13.2" y="26.2" transform="matrix(-1 -4.512269e-11 4.512269e-11 -1 31.228 53.1177)" class="st0" width="4.8" height="0.8"/>
<rect x="13.6" y="24.1" transform="matrix(4.521367e-11 -1 1 4.521367e-11 -10.088 38.9223)" class="st0" width="1.6" height="0.8"/>
<rect x="6" y="24.6" transform="matrix(-1 -4.474655e-11 4.474655e-11 -1 16.8157 49.9567)" class="st0" width="4.8" height="0.8"/>
<rect x="10.4" y="25.8" transform="matrix(4.521367e-11 -1 1 4.521367e-11 -14.9591 37.3791)" class="st0" width="1.6" height="0.8"/>
<rect x="4.8" y="25.8" transform="matrix(4.521367e-11 -1 1 4.521367e-11 -20.5761 31.762)" class="st0" width="1.6" height="0.8"/>
<rect x="6" y="26.2" transform="matrix(-1 -4.474655e-11 4.474655e-11 -1 16.8157 53.1594)" class="st0" width="4.8" height="0.8"/>
<rect x="6.4" y="24.1" transform="matrix(4.464169e-11 -1 1 4.464169e-11 -17.315 31.737)" class="st0" width="1.6" height="0.8"/>
</svg>
