<?xml version="1.0" encoding="utf-8"?>
<!-- Generator: Adobe Illustrator 25.4.1, SVG Export Plug-In . SVG Version: 6.00 Build 0)  -->
<svg version="1.1" id="Layer_1" xmlns="http://www.w3.org/2000/svg" xmlns:xlink="http://www.w3.org/1999/xlink" x="0px" y="0px"
	 viewBox="0 0 119 29" style="enable-background:new 0 0 119 29;" xml:space="preserve">
<style type="text/css">
	.st0{fill:#6F2DA8;}
	.st1{fill:#73BE28;}
</style>
<g>
	<path class="st0" d="M23.8,9.4c0-3.9,3.1-4.8,5.9-4.8c1.2,0,2.5,0.2,3.6,0.7l4-0.7l0.2,0.2v2.3h-2.4c0.3,0.6,0.5,1.4,0.5,2.3v1.5
		c0,3.9-3.1,4.8-5.9,4.8c-0.3,0-0.7,0-1,0c-0.3,1.6,0.3,2.2,1.1,2.2c3.9,0,5.7,0.2,5.7,3.7c0,3.7-3.3,4-6.2,4
		c-2.6,0-5.3-0.3-5.3-0.3v-2.7l0.2-0.2c0,0,2.5,0.3,4.4,0.3c2.3,0,3.1-0.3,3.1-1.1c0-0.7-0.5-0.9-1.8-0.9h-1.4
		c-3.1,0-3.1-2.4-2.2-5.6c-1.4-0.7-2.4-1.9-2.4-4.2V9.4H23.8z M31.9,10c0-1.3-0.3-2.3-2.2-2.3c-1.8,0-2.2,1-2.2,2.3v0.6
		c0,1.3,0.3,2,2.2,2c1.8,0,2.2-1,2.2-2.3V10z"/>
	<path class="st0" d="M48.9,19.4h-3.5l-0.2-0.2l0.1-1.6h-0.1c0,0-1.3,2.2-4,2.2c-2,0-4-0.9-4-4.4s2.6-4.9,5.6-4.9h2.5V9.7
		c0-1-0.5-2-2.2-2c-2,0-4.5,0.3-4.5,0.3l-0.2-0.2V4.9c0,0,2.8-0.3,5.4-0.3c2.4,0,5.3,0.6,5.3,4.1v10.7H48.9z M45.2,13.2h-1.7
		c-2,0-2.6,0.6-2.6,1.8c0,1.3,1.1,1.6,1.9,1.6c1,0,2-0.4,2.5-1.2v-2.2C45.3,13.2,45.2,13.2,45.2,13.2z"/>
	<path class="st0" d="M65.9,4.6c2.3,0,4,0.9,4,4.4v10.5h-3.7V9.3c0-1.3-0.6-1.6-1.5-1.6c-1.1,0-1.9,0.6-2.8,1.7v10.1h-3.7V9.3
		c0-1.3-0.6-1.6-1.5-1.6c-1.1,0-1.9,0.6-2.8,1.7v10.1h-3.7V4.9h3.5l0.2,0.2l-0.1,1.6h0.1c0,0,1.3-2.2,4-2.2c1.8,0,3.2,0.6,3.7,2.3
		C62.2,6.1,63.7,4.6,65.9,4.6z"/>
	<path class="st0" d="M82.6,12.9l-0.3,0.3h-7.5V14c0,2.2,1.3,2.5,3,2.5c2,0,3.9-0.3,3.9-0.3l0.2,0.2v3c0,0-2.5,0.3-5,0.3
		c-2.7,0-5.8-0.9-5.8-4.4v-6c0-3.9,3.1-4.8,5.9-4.8s5.9,0.9,5.9,4.8C82.9,10.8,82.6,12.9,82.6,12.9z M74.9,10.3v0.2h4
		c0.3-1.9,0-2.8-1.9-2.8C74.9,7.7,74.9,9,74.9,10.3z"/>
	<path class="st1" d="M87.4,4.5h2.9v12.1c0,2.2-1.2,3.1-3.5,3.1c-1.4,0-2.6-0.2-2.6-0.2v-2.4l0.2-0.2c0,0,1,0.1,1.8,0.1
		s1.2-0.2,1.2-1V4.5z"/>
	<path class="st1" d="M98.8,4.4l3.8,15.1h-3.2l-1-4.6h-3.3l-0.9,4.6H91l3.8-15.1C94.8,4.4,98.8,4.4,98.8,4.4z M95.5,12.3h2.4
		l-1.1-5.4L95.5,12.3z"/>
	<path class="st1" d="M106.8,4.5l3,6.7l3-6.7h3.3v15h-2.9v-8.9l-2.7,5.6h-1.6l-2.7-5.6v8.9h-2.7v-15H106.8z"/>
</g>
<rect x="4.1" y="4.7" class="st1" width="16" height="0.8"/>
<rect x="3.3" y="5.5" class="st1" width="1.6" height="0.8"/>
<rect x="19.3" y="5.5" class="st1" width="1.6" height="0.8"/>
<rect x="15.3" y="7.1" class="st1" width="3.2" height="0.8"/>
<rect x="9.7" y="12.7" class="st1" width="10.4" height="0.8"/>
<rect x="16.1" y="11.1" class="st1" width="2.4" height="0.8"/>
<rect x="4.1" y="21.5" class="st1" width="14.4" height="0.8"/>
<rect x="13.7" y="23.1" class="st1" width="4.8" height="0.8"/>
<rect x="17.7" y="20.7" class="st1" width="1.6" height="0.8"/>
<rect x="3.3" y="20.7" class="st1" width="1.6" height="0.8"/>
<rect x="18.4" y="13.5" class="st1" width="0.8" height="7.2"/>
<rect x="20.1" y="6.3" class="st1" width="0.8" height="6.4"/>
<rect x="3.3" y="6.3" class="st1" width="0.8" height="14.4"/>
<rect x="16.1" y="11.1" class="st1" width="2.4" height="0.8"/>
<rect x="18.4" y="7.9" class="st1" width="0.8" height="3.2"/>
<rect x="15.2" y="7.9" class="st1" width="0.8" height="3.2"/>
<rect x="16.9" y="9.5" class="st1" width="0.8" height="0.8"/>
<rect x="15.2" y="14.3" class="st1" width="0.8" height="3.2"/>
<rect x="14.4" y="13.5" class="st1" width="0.8" height="0.8"/>
<rect x="16" y="15.9" class="st1" width="0.8" height="0.8"/>
<rect x="16.8" y="13.5" class="st1" width="0.8" height="2.4"/>
<rect x="8.9" y="11.9" class="st1" width="0.8" height="0.8"/>
<rect x="11.2" y="14.3" class="st1" width="0.8" height="3.2"/>
<rect x="10.4" y="13.5" class="st1" width="0.8" height="0.8"/>
<rect x="12" y="15.9" class="st1" width="0.8" height="0.8"/>
<rect x="12.8" y="13.5" class="st1" width="0.8" height="2.4"/>
<rect x="10.5" y="7.1" class="st1" width="3.2" height="0.8"/>
<rect x="11.3" y="11.1" class="st1" width="2.4" height="0.8"/>
<rect x="13.6" y="7.9" class="st1" width="0.8" height="3.2"/>
<rect x="10.4" y="7.9" class="st1" width="0.8" height="3.2"/>
<rect x="12.1" y="9.5" class="st1" width="0.8" height="0.8"/>
<rect x="12" y="3.1" class="st1" width="0.8" height="1.6"/>
<rect x="13.6" y="2.3" class="st1" width="0.8" height="1.6"/>
<rect x="12.3" y="3.1" class="st1" width="1.6" height="0.8"/>
<rect x="9.6" y="3.1" class="st1" width="0.8" height="1.6"/>
<rect x="8.8" y="2.3" class="st1" width="0.8" height="1.6"/>
<rect x="18.5" y="23.9" class="st1" width="0.8" height="1.6"/>
<rect x="12.9" y="23.9" class="st1" width="0.8" height="1.6"/>
<rect x="13.7" y="24.7" class="st1" width="4.8" height="0.8"/>
<rect x="14.5" y="22.3" class="st1" width="0.8" height="1.6"/>
<rect x="6.5" y="23.1" class="st1" width="4.8" height="0.8"/>
<rect x="11.3" y="23.9" class="st1" width="0.8" height="1.6"/>
<rect x="5.7" y="23.9" class="st1" width="0.8" height="1.6"/>
<rect x="6.5" y="24.7" class="st1" width="4.8" height="0.8"/>
<rect x="7.2" y="22.3" class="st1" width="0.8" height="1.6"/>
<g>
	<path class="st1" d="M40,23.2c0,0.7-0.5,0.9-0.9,0.9c-0.1,0,0.1,0-0.8,0v1.4h-0.7v-3.7h1.6c0.5,0,0.9,0.2,0.9,0.9V23.2z M39,23.5
		c0.2,0,0.3-0.1,0.3-0.3v-0.4c0-0.2-0.1-0.3-0.3-0.3h-0.7v1H39z"/>
	<path class="st1" d="M41.5,24.7v-2.2c0-0.7,0.5-0.8,0.9-0.8H43c0.5,0,0.9,0.2,0.9,0.8v2.2c0,0.7-0.5,0.8-0.9,0.8h-0.6
		C42,25.6,41.5,25.4,41.5,24.7z M42.2,24.5c0,0.4,0.2,0.4,0.4,0.4h0.3c0.2,0,0.4-0.1,0.4-0.4v-1.7c0-0.4-0.2-0.4-0.4-0.4
		c0,0-0.3,0-0.3,0c-0.2,0-0.4,0-0.4,0.4V24.5z"/>
	<path class="st1" d="M48.6,21.8h0.8l-0.8,3.8h-0.9L47.2,24l-0.4,1.5H46l-0.8-3.8h0.8l0.5,2.8l0.6-2.8h0.7l-0.2,0.9l0.5,1.8
		L48.6,21.8z"/>
	<path class="st1" d="M51.4,23.2h1.3v0.7h-1.3v0.9H53v0.7h-2.4v-3.7H53v0.7h-1.7V23.2z"/>
	<path class="st1" d="M57,23.1c0,0.5-0.2,0.8-0.6,0.9l0.8,1.5h-0.8L55.6,24h-0.4v1.5h-0.7v-3.7h1.6c0.5,0,0.9,0.2,0.9,0.9V23.1z
		 M56,23.4c0.2,0,0.3-0.1,0.3-0.3v-0.4c0-0.2-0.1-0.3-0.3-0.3h-0.7v1H56z"/>
	<path class="st1" d="M59.4,23.2h1.3v0.7h-1.3v0.9h1.7v0.7h-2.4v-3.7h2.4v0.7h-1.7V23.2z"/>
	<path class="st1" d="M65.1,24.5c0,0.8-0.5,1-1.1,1h-1.4v-3.7H64c0.6,0,1.1,0.2,1.1,1V24.5z M64.3,22.9c0-0.2-0.1-0.5-0.5-0.5h-0.6
		v2.4h0.6c0.4,0,0.5-0.2,0.5-0.5V22.9z"/>
	<path class="st1" d="M73.8,24.6c0,0.7-0.5,0.9-0.9,0.9h-1.6v-3.7h1.5c0.5,0,0.9,0.2,0.9,0.9v0.2c0,0.4-0.1,0.6-0.4,0.7
		c0.3,0.1,0.5,0.4,0.5,0.8V24.6z M72.8,23.2c0.2,0,0.3-0.2,0.3-0.3v-0.2c0-0.1,0-0.3-0.3-0.3H72v0.8H72.8z M72.8,24.8
		c0.2,0,0.3-0.1,0.3-0.3v-0.4c0-0.2-0.1-0.3-0.3-0.3c-0.1,0,0.1,0-0.8,0v0.9H72.8z"/>
	<path class="st1" d="M75.5,21.8l0.6,1.5l0.6-1.5h0.8l-1.1,2.4v1.3h-0.7v-1.3l-1.1-2.4H75.5z"/>
	<path class="st1" d="M86,24.5c0,0.8-0.5,1-1.1,1h-1.4v-3.7h1.4c0.6,0,1.1,0.2,1.1,1V24.5z M85.3,22.9c0-0.2-0.1-0.5-0.5-0.5h-0.6
		v2.4h0.6c0.4,0,0.5-0.2,0.5-0.5V22.9z"/>
	<path class="st1" d="M87.8,21.8l0.6,1.5l0.6-1.5h0.8l-1.1,2.4v1.3H88v-1.3l-1.1-2.4H87.8z"/>
	<path class="st1" d="M93.6,21.8v3.7h-0.8l-1-2v2h-0.7v-3.7h0.7l1.1,2.3v-2.3H93.6z"/>
	<path class="st1" d="M96.9,21.7l0.9,3.8H97l-0.2-1.2h-0.8l-0.2,1.2h-0.8l0.9-3.8H96.9z M96,23.7h0.6l-0.3-1.3L96,23.7z"/>
	<path class="st1" d="M100,22.4v3.1h-0.7v-3.1h-0.9v-0.7h2.5v0.7H100z"/>
	<path class="st1" d="M104.7,23.1c0,0.5-0.2,0.8-0.6,0.9l0.8,1.5H104l-0.7-1.5h-0.4v1.5h-0.7v-3.7h1.6c0.5,0,0.9,0.2,0.9,0.9V23.1z
		 M103.6,23.4c0.2,0,0.3-0.1,0.3-0.3v-0.4c0-0.2-0.1-0.3-0.3-0.3h-0.7v1H103.6z"/>
	<path class="st1" d="M108,21.7l0.9,3.8h-0.8l-0.2-1.2h-0.8l-0.2,1.2H106l0.9-3.8H108z M107.2,23.7h0.6l-0.3-1.3L107.2,23.7z"/>
	<path class="st1" d="M112.4,22.4c0,0-0.6-0.1-1-0.1c-0.4,0-0.6,0.1-0.6,0.5v1.6c0,0.4,0.2,0.5,0.6,0.5c0.4,0,1-0.1,1-0.1l0,0v0.6
		c0,0-0.7,0.1-1.2,0.1c-0.5,0-1.1-0.1-1.1-0.8v-2.3c0-0.7,0.6-0.8,1.1-0.8c0.5,0,1.2,0.1,1.2,0.1L112.4,22.4L112.4,22.4z"/>
	<path class="st1" d="M114.5,23.2h1.3v0.7h-1.3v0.9h1.7v0.7h-2.4v-3.7h2.4v0.7h-1.7V23.2z"/>
</g>
</svg>
